<svg width="2723" height="600" viewBox="0 0 2723 600" fill="none" xmlns="http://www.w3.org/2000/svg">
<path d="M73.686 456.78L278.132 298.56C283.388 294.48 283.388 287.88 278.132 283.8L187.141 213.66C181.884 209.58 181.884 202.98 187.141 198.9L228 167.28C233.256 163.2 241.785 163.2 247.091 167.28L527.504 383.52C532.76 387.6 532.76 394.2 527.504 398.28L486.645 429.9C481.388 433.98 472.86 433.98 467.554 429.9L371.455 355.8C366.198 351.72 357.669 351.72 352.364 355.8L147.917 514.02C142.661 518.1 134.132 518.1 128.826 514.02L73.686 471.48C68.4298 467.4 68.4298 460.8 73.686 456.72V456.78Z" fill="black"/>
<path d="M138.397 521.16C134.331 521.16 130.215 519.96 127.041 517.5L71.9008 474.96C68.3802 472.26 66.3967 468.3 66.3967 464.16C66.3967 459.96 68.3802 456.06 71.9008 453.3L276.347 295.08C277.884 293.88 278.727 292.5 278.727 291.18C278.727 289.86 277.835 288.42 276.347 287.28L185.355 217.14C181.835 214.44 179.851 210.48 179.851 206.34C179.851 202.14 181.835 198.24 185.355 195.48L226.215 163.86C232.562 158.94 242.579 158.94 248.926 163.86L529.339 380.1C532.86 382.8 534.843 386.76 534.843 390.9C534.843 395.1 532.86 399 529.339 401.76L488.479 433.38C482.132 438.3 472.116 438.3 465.769 433.38L369.669 359.28C365.504 356.04 358.413 356.04 354.248 359.28L149.802 517.5C146.628 519.96 142.512 521.22 138.397 521.22V521.16ZM237.521 168.3C234.694 168.3 231.868 169.14 229.785 170.7L188.926 202.32C187.388 203.52 186.545 204.9 186.545 206.22C186.545 207.54 187.438 208.98 188.926 210.12L279.917 280.26C283.438 282.96 285.421 286.92 285.421 291.06C285.421 295.26 283.438 299.16 279.917 301.92L75.4711 460.14C73.9835 461.34 73.0909 462.72 73.0909 464.04C73.0909 465.36 73.9835 466.8 75.4711 467.94L130.612 510.48C134.777 513.72 141.868 513.72 146.033 510.48L350.479 352.26C356.826 347.34 366.843 347.34 373.19 352.26L469.289 426.36C473.455 429.6 480.545 429.6 484.711 426.36L525.57 394.74C527.107 393.54 527.95 392.16 527.95 390.84C527.95 389.52 527.058 388.08 525.57 386.94L245.207 170.7C243.124 169.08 240.298 168.3 237.521 168.3Z" fill="black"/>
<path d="M73.686 415.68L278.132 257.46C283.388 253.38 283.388 246.78 278.132 242.7L187.141 172.56C181.884 168.48 181.884 161.88 187.141 157.8L228 126.18C233.256 122.1 241.785 122.1 247.091 126.18L527.504 342.42C532.76 346.5 532.76 353.1 527.504 357.18L486.645 388.8C481.388 392.88 472.86 392.88 467.554 388.8L371.455 314.7C366.198 310.62 357.669 310.62 352.364 314.7L147.917 472.92C142.661 477 134.132 477 128.826 472.92L73.686 430.38C68.4298 426.3 68.4298 419.7 73.686 415.62V415.68Z" fill="white"/>
<path d="M138.397 480.12C134.331 480.12 130.215 478.92 127.041 476.46L71.9008 433.92C68.3802 431.22 66.3967 427.26 66.3967 423.12C66.3967 418.92 68.3802 415.02 71.9008 412.26L276.347 254.04C277.884 252.84 278.727 251.46 278.727 250.14C278.727 248.82 277.835 247.38 276.347 246.24L185.355 176.1C181.835 173.4 179.851 169.44 179.851 165.3C179.851 161.1 181.835 157.2 185.355 154.44L226.215 122.82C232.562 117.9 242.579 117.9 248.926 122.82L529.339 339.06C532.86 341.76 534.843 345.72 534.843 349.86C534.843 354.06 532.86 357.96 529.339 360.72L488.479 392.34C482.132 397.26 472.116 397.26 465.769 392.34L369.669 318.24C365.504 315 358.413 315 354.248 318.24L149.802 476.46C146.628 478.92 142.512 480.18 138.397 480.18V480.12ZM237.521 127.26C234.694 127.26 231.868 128.1 229.785 129.66L188.926 161.28C187.388 162.48 186.545 163.86 186.545 165.18C186.545 166.5 187.438 167.94 188.926 169.08L279.917 239.22C283.438 241.92 285.421 245.88 285.421 250.02C285.421 254.22 283.438 258.12 279.917 260.88L75.4711 419.1C73.9835 420.3 73.0909 421.68 73.0909 423C73.0909 424.32 73.9835 425.76 75.4711 426.9L130.612 469.44C134.777 472.68 141.868 472.68 146.033 469.44L350.479 311.22C356.826 306.3 366.843 306.3 373.19 311.22L469.289 385.32C473.455 388.56 480.545 388.56 484.711 385.32L525.57 353.7C527.107 352.5 527.95 351.12 527.95 349.8C527.95 348.48 527.058 347.04 525.57 345.9L245.207 129.66C243.124 128.04 240.298 127.26 237.521 127.26Z" fill="white"/>
<path d="M73.686 374.64L278.132 216.42C283.388 212.34 283.388 205.74 278.132 201.66L187.141 131.52C181.884 127.44 181.884 120.84 187.141 116.76L228 85.14C233.256 81.06 241.785 81.06 247.091 85.14L527.504 301.38C532.76 305.46 532.76 312.06 527.504 316.14L486.645 347.76C481.388 351.84 472.86 351.84 467.554 347.76L371.455 273.66C366.198 269.58 357.669 269.58 352.364 273.66L147.917 431.88C142.661 435.96 134.132 435.96 128.826 431.88L73.686 389.34C68.4298 385.26 68.4298 378.66 73.686 374.58V374.64Z" fill="black"/>
<path d="M138.397 439.02C134.331 439.02 130.215 437.82 127.041 435.36L71.9008 392.82C68.3802 390.12 66.3967 386.16 66.3967 382.02C66.3967 377.82 68.3802 373.92 71.9008 371.16L276.347 212.94C277.884 211.74 278.727 210.36 278.727 209.04C278.727 207.72 277.835 206.28 276.347 205.14L185.355 135C181.835 132.3 179.851 128.34 179.851 124.2C179.851 120 181.835 116.1 185.355 113.34L226.215 81.72C232.562 76.8 242.579 76.8 248.926 81.72L529.339 297.96C532.86 300.66 534.843 304.62 534.843 308.76C534.843 312.96 532.86 316.86 529.339 319.62L488.479 351.24C482.132 356.16 472.116 356.16 465.769 351.24L369.669 277.14C365.504 273.9 358.413 273.9 354.248 277.14L149.802 435.36C146.628 437.82 142.512 439.08 138.397 439.08V439.02ZM237.521 86.22C234.694 86.22 231.868 87.06 229.785 88.62L188.926 120.24C187.388 121.44 186.545 122.82 186.545 124.14C186.545 125.46 187.438 126.9 188.926 128.04L279.917 198.18C283.438 200.88 285.421 204.84 285.421 208.98C285.421 213.18 283.438 217.08 279.917 219.84L75.4711 378.06C73.9835 379.26 73.0909 380.64 73.0909 381.96C73.0909 383.28 73.9835 384.72 75.4711 385.86L130.612 428.4C134.777 431.64 141.868 431.64 146.033 428.4L350.479 270.18C356.826 265.26 366.843 265.26 373.19 270.18L469.289 344.28C473.455 347.52 480.545 347.52 484.711 344.28L525.57 312.66C527.107 311.46 527.95 310.08 527.95 308.76C527.95 307.44 527.058 306 525.57 304.86L245.207 88.62C243.124 87 240.298 86.22 237.521 86.22Z" fill="black"/>
<path d="M898.934 153.796V208.87H824.162V436H755.42V208.87H680.648V153.796H898.934ZM939.866 323.44C939.866 300.392 944.154 280.158 952.73 262.738C961.574 245.318 973.5 231.918 988.508 222.538C1003.52 213.158 1020.27 208.468 1038.76 208.468C1054.57 208.468 1068.37 211.684 1080.16 218.116C1092.22 224.548 1101.47 232.99 1107.9 243.442V211.684H1176.64V436H1107.9V404.242C1101.2 414.694 1091.82 423.136 1079.76 429.568C1067.97 436 1054.17 439.216 1038.36 439.216C1020.13 439.216 1003.52 434.526 988.508 425.146C973.5 415.498 961.574 401.964 952.73 384.544C944.154 366.856 939.866 346.488 939.866 323.44ZM1107.9 323.842C1107.9 306.69 1103.08 293.156 1093.43 283.24C1084.05 273.324 1072.53 268.366 1058.86 268.366C1045.19 268.366 1033.53 273.324 1023.88 283.24C1014.5 292.888 1009.81 306.288 1009.81 323.44C1009.81 340.592 1014.5 354.26 1023.88 364.444C1033.53 374.36 1045.19 379.318 1058.86 379.318C1072.53 379.318 1084.05 374.36 1093.43 364.444C1103.08 354.528 1107.9 340.994 1107.9 323.842ZM1383.16 209.272C1409.42 209.272 1430.32 217.848 1445.87 235C1461.68 251.884 1469.59 275.2 1469.59 304.948V436H1401.25V314.194C1401.25 299.186 1397.36 287.528 1389.59 279.22C1381.82 270.912 1371.36 266.758 1358.23 266.758C1345.1 266.758 1334.65 270.912 1326.88 279.22C1319.1 287.528 1315.22 299.186 1315.22 314.194V436H1246.48V211.684H1315.22V241.432C1322.19 231.516 1331.57 223.744 1343.36 218.116C1355.15 212.22 1368.42 209.272 1383.16 209.272ZM1622.68 208.468C1638.49 208.468 1652.29 211.684 1664.08 218.116C1676.14 224.548 1685.39 232.99 1691.82 243.442V211.684H1760.56V435.598C1760.56 456.234 1756.41 474.86 1748.1 491.476C1740.06 508.36 1727.6 521.76 1710.72 531.676C1694.1 541.592 1673.33 546.55 1648.41 546.55C1615.17 546.55 1588.24 538.644 1567.6 522.832C1546.97 507.288 1535.18 486.116 1532.23 459.316H1600.17C1602.31 467.892 1607.4 474.592 1615.44 479.416C1623.48 484.508 1633.4 487.054 1645.19 487.054C1659.39 487.054 1670.65 482.9 1678.96 474.592C1687.53 466.552 1691.82 453.554 1691.82 435.598V403.84C1685.12 414.292 1675.88 422.868 1664.08 429.568C1652.29 436 1638.49 439.216 1622.68 439.216C1604.19 439.216 1587.44 434.526 1572.43 425.146C1557.42 415.498 1545.49 401.964 1536.65 384.544C1528.07 366.856 1523.79 346.488 1523.79 323.44C1523.79 300.392 1528.07 280.158 1536.65 262.738C1545.49 245.318 1557.42 231.918 1572.43 222.538C1587.44 213.158 1604.19 208.468 1622.68 208.468ZM1691.82 323.842C1691.82 306.69 1687 293.156 1677.35 283.24C1667.97 273.324 1656.45 268.366 1642.78 268.366C1629.11 268.366 1617.45 273.324 1607.8 283.24C1598.42 292.888 1593.73 306.288 1593.73 323.44C1593.73 340.592 1598.42 354.26 1607.8 364.444C1617.45 374.36 1629.11 379.318 1642.78 379.318C1656.45 379.318 1667.97 374.36 1677.35 364.444C1687 354.528 1691.82 340.994 1691.82 323.842ZM2041.85 320.224C2041.85 326.656 2041.45 333.356 2040.64 340.324H1885.07C1886.14 354.26 1890.56 364.98 1898.33 372.484C1906.37 379.72 1916.16 383.338 1927.68 383.338C1944.83 383.338 1956.76 376.102 1963.46 361.63H2036.62C2032.87 376.37 2026.04 389.636 2016.12 401.428C2006.47 413.22 1994.28 422.466 1979.54 429.166C1964.8 435.866 1948.32 439.216 1930.09 439.216C1908.12 439.216 1888.55 434.526 1871.4 425.146C1854.25 415.766 1840.85 402.366 1831.2 384.946C1821.55 367.526 1816.73 347.158 1816.73 323.842C1816.73 300.526 1821.42 280.158 1830.8 262.738C1840.45 245.318 1853.85 231.918 1871 222.538C1888.15 213.158 1907.85 208.468 1930.09 208.468C1951.8 208.468 1971.1 213.024 1987.98 222.136C2004.86 231.248 2018 244.246 2027.38 261.13C2037.02 278.014 2041.85 297.712 2041.85 320.224ZM1971.5 302.134C1971.5 290.342 1967.48 280.962 1959.44 273.994C1951.4 267.026 1941.35 263.542 1929.29 263.542C1917.76 263.542 1907.98 266.892 1899.94 273.592C1892.17 280.292 1887.35 289.806 1885.47 302.134H1971.5ZM2234.89 209.272C2261.16 209.272 2282.06 217.848 2297.61 235C2313.42 251.884 2321.32 275.2 2321.32 304.948V436H2252.98V314.194C2252.98 299.186 2249.1 287.528 2241.33 279.22C2233.55 270.912 2223.1 266.758 2209.97 266.758C2196.84 266.758 2186.39 270.912 2178.61 279.22C2170.84 287.528 2166.96 299.186 2166.96 314.194V436H2098.21V211.684H2166.96V241.432C2173.92 231.516 2183.3 223.744 2195.1 218.116C2206.89 212.22 2220.15 209.272 2234.89 209.272ZM2514.21 377.71V436H2479.24C2454.32 436 2434.89 429.97 2420.95 417.91C2407.01 405.582 2400.05 385.616 2400.05 358.012V268.768H2372.71V211.684H2400.05V157.012H2468.79V211.684H2513.81V268.768H2468.79V358.816C2468.79 365.516 2470.4 370.34 2473.61 373.288C2476.83 376.236 2482.19 377.71 2489.69 377.71H2514.21Z" fill="black"/>
</svg>
